M48
; DRILL file {KiCad (5.1.8)-1} date 02/06/21 17:47:40
; FORMAT={-:-/ absolute / metric / decimal}
; #@! TF.CreationDate,2021-02-06T17:47:40+00:00
; #@! TF.GenerationSoftware,Kicad,Pcbnew,(5.1.8)-1
; #@! TF.FileFunction,Plated,1,2,PTH
FMAT,2
METRIC
T1C0.400
T2C0.750
T3C1.200
T4C1.300
T5C1.500
%
G90
G05
T1
X126.2Y-80.5
X127.9Y-78.0
X127.9Y-87.0
X130.6Y-82.0
X132.6Y-82.6
X133.0Y-77.0
X134.0Y-85.4
X139.2Y-42.7
X139.6Y-45.3
X142.0Y-87.75
X150.287Y-47.787
X150.772Y-49.9
X150.8Y-50.9
X152.3Y-43.2
X152.3Y-44.6
X152.5Y-46.6
X162.2Y-82.1
X162.205Y-44.095
X162.205Y-52.805
X162.205Y-63.095
X163.6Y-46.6
X163.6Y-65.6
X163.6Y-84.6
X164.75Y-41.35
X165.475Y-42.075
X165.475Y-60.425
X165.5Y-79.7
X167.3Y-47.9
X167.3Y-66.9
X167.3Y-85.9
T2
X140.8Y-65.0
X142.8Y-65.0
X144.8Y-65.0
X146.8Y-65.0
X148.8Y-65.0
X150.8Y-65.0
X139.0Y-72.0
X139.0Y-74.0
X139.0Y-76.0
X139.0Y-78.0
T3
X89.35Y-76.0
X99.45Y-76.0
X112.15Y-76.0
X117.25Y-76.0
X89.35Y-85.0
X99.45Y-85.0
X112.15Y-85.0
X117.25Y-85.0
T4
X148.0Y-84.0
X153.08Y-84.0
X71.0Y-49.0
X71.0Y-54.08
X71.0Y-82.0
X71.0Y-87.08
X71.0Y-70.0
X71.0Y-75.08
T5
X66.7Y-41.0
X89.3Y-41.0
X171.79Y-80.05
X171.79Y-87.95
X172.022Y-42.05
X172.022Y-49.95
X88.0Y-58.0
X88.0Y-68.75
X126.5Y-60.75
X126.5Y-68.75
X171.79Y-61.05
X171.79Y-68.95
T0
M30
